<?xml version="1.0" encoding="UTF-8" standalone="no"?>
<svg
   xmlns:dc="http://purl.org/dc/elements/1.1/"
   xmlns:cc="http://creativecommons.org/ns#"
   xmlns:rdf="http://www.w3.org/1999/02/22-rdf-syntax-ns#"
   xmlns:svg="http://www.w3.org/2000/svg"
   xmlns="http://www.w3.org/2000/svg"
   viewBox="0 0 484 118.66667"
   height="118.66667"
   width="484"
   xml:space="preserve"
   id="svg2"
   version="1.1"><metadata
     id="metadata8"><rdf:RDF><cc:Work
         rdf:about=""><dc:format>image/svg+xml</dc:format><dc:type
           rdf:resource="http://purl.org/dc/dcmitype/StillImage" /></cc:Work></rdf:RDF></metadata><defs
     id="defs6" /><g
     transform="matrix(1.3333333,0,0,-1.3333333,0,118.66667)"
     id="g10"><g
       transform="scale(0.1)"
       id="g12"><path
         id="path14"
         style="fill:#f04422;fill-opacity:1;fill-rule:evenodd;stroke:none"
         d="m 98.5703,537.117 c 50.7107,0 92.0507,-41.344 92.0507,-92.047 0,-50.707 -41.34,-92.054 -92.0507,-92.054 -50.6914,0 -92.04296,41.347 -92.04296,92.054 0,50.703 41.35156,92.047 92.04296,92.047 z m 410.1207,272.61 c 22.704,0 44.911,-2.164 66.457,-6.262 -0.359,-3.91 -0.554,-7.871 -0.554,-11.875 0,-70.676 57.636,-128.324 128.297,-128.324 27.75,0 53.457,8.882 74.488,23.953 48.851,-55.934 80.574,-127.16 86.891,-205.379 l -145.282,-4.496 c -12.144,105.187 -101.922,187.328 -210.297,187.328 -30.621,0 -59.757,-6.555 -86.078,-18.363 l -72.699,125.972 c 47.863,23.938 101.797,37.446 158.777,37.446" /><path
         id="path16"
         style="fill:#f6a71b;fill-opacity:1;fill-rule:evenodd;stroke:none"
         d="m 707.82,185.668 c 50.688,0 92.032,-41.34 92.032,-92.0508 0,-50.6875 -41.344,-92.04298 -92.032,-92.04298 -50.703,0 -92.047,41.35548 -92.047,92.04298 0,50.7108 41.344,92.0508 92.047,92.0508 z M 305.129,160.316 c -62.027,43.309 -109.758,105.766 -134.469,178.707 33.895,23.145 56.227,62.063 56.227,106.047 0,45.739 -24.149,86.012 -60.352,108.746 22.836,77.207 71.188,143.649 135.235,189.469 l 76.582,-123.699 c -49.477,-38.797 -81.348,-99.113 -81.348,-166.613 0,-66.918 31.324,-126.754 80.066,-165.586 L 305.129,160.316" /><path
         id="path18"
         style="fill:#e91b28;fill-opacity:1;fill-rule:evenodd;stroke:none"
         d="m 864.543,427.828 c -5.965,-85.07 -41.98,-162.094 -97.488,-220.449 -17.746,9.285 -37.891,14.555 -59.235,14.555 -67.382,0 -122.937,-52.411 -127.937,-118.539 -23.031,-4.6919 -46.824,-7.1762 -71.192,-7.1762 -55.863,0 -108.804,12.9722 -155.945,36.0432 l 72.391,126.265 c 25.66,-11.093 53.914,-17.265 83.554,-17.265 108.887,0 199.008,82.937 210.481,188.859 z M 702.891,883.633 c 50.711,0 92.05,-41.352 92.05,-92.043 0,-50.711 -41.339,-92.051 -92.05,-92.051 -50.696,0 -92.043,41.34 -92.043,92.051 0,50.691 41.347,92.043 92.043,92.043" /><path
         id="path20"
         style="fill:#231f20;fill-opacity:1;fill-rule:evenodd;stroke:none"
         d="m 1225.79,208.918 c -143.33,0 -189.06,103.664 -189.06,231.074 v 147.981 c 0,32.765 13.91,60.949 54.39,60.949 40.48,0 54.37,-28.59 54.37,-60.949 V 414.914 c 0,-75.203 31.91,-105.434 80.3,-105.434 48.39,0 80.3,30.231 80.3,105.434 v 173.059 c 0,32.359 13.9,60.949 54.36,60.949 40.5,0 54.39,-28.184 54.39,-60.949 V 439.992 c 0,-127.41 -45.72,-231.074 -189.05,-231.074 z m 936.56,0 c -143.33,0 -189.04,103.664 -189.04,231.074 v 147.981 c 0,32.765 13.87,60.949 54.37,60.949 40.48,0 54.38,-28.598 54.38,-60.949 V 414.914 c 0,-75.203 31.9,-105.434 80.29,-105.434 48.38,0 80.29,30.231 80.29,105.434 v 173.059 c 0,32.359 13.91,60.949 54.4,60.949 40.46,0 54.37,-28.192 54.37,-60.949 V 439.992 c 0,-127.41 -45.73,-231.074 -189.06,-231.074 z m 1269.61,0 c -143.33,0 -189.06,103.664 -189.06,231.074 v 147.981 c 0,32.765 13.89,60.949 54.39,60.949 40.48,0 54.37,-28.598 54.37,-60.949 V 414.914 c 0,-75.199 31.9,-105.434 80.3,-105.434 48.4,0 80.29,30.231 80.29,105.434 v 173.059 c 0,32.359 13.9,60.949 54.39,60.949 40.48,0 54.37,-28.192 54.37,-60.949 V 439.992 c 0,-127.394 -45.71,-231.074 -189.05,-231.074 z m -797.07,440.004 c -143.32,0 -189.05,-103.656 -189.05,-231.07 V 269.863 c 0,-32.75 13.89,-60.945 54.37,-60.945 40.49,0 54.37,28.566 54.37,60.945 v 173.063 c 0,75.199 31.92,105.445 80.31,105.445 48.39,0 80.29,-30.246 80.29,-105.445 V 269.863 c 0,-32.363 13.89,-60.945 54.38,-60.945 40.48,0 54.38,28.184 54.38,60.945 v 147.989 c 0,127.414 -45.71,231.07 -189.05,231.07 z m -938.94,-88.129 c 80.56,0.547 95.38,-82.613 95.87,-129.031 0.46,-46.41 -11.83,-134.766 -96.32,-134.492 -82.78,0.242 -86.35,73.261 -87.65,135.375 -1.31,62.125 10.46,127.64 88.1,128.148 z M 1509.01,419.527 v 339.137 c 0,32.781 15.92,60.957 54.39,60.957 38.44,0 54.37,-28.59 54.37,-60.957 V 623.012 c 26.68,14.324 58.02,25.789 98.91,25.738 93.08,-0.117 174.5,-88.375 172.13,-219.883 -2.38,-131.504 -57.23,-219.57 -199.88,-219.633 -95.68,-0.043 -179.92,54.239 -179.92,210.293 z M 2946.4,349.793 v 226.102 l -21.94,0.066 c -22.33,0.062 -42.44,17.781 -42.44,40.113 v 0 c 0,22.34 18.64,40.61 47.34,40.61 h 17.04 v 101.808 c 0,32.77 13.9,60.949 54.37,60.949 40.49,0 54.35,-28.601 54.38,-60.949 l 0.08,-101.808 h 49.28 c 22.34,0 40.62,-18.282 40.62,-40.61 v 0 c 0,-25.328 -22.41,-40.715 -60.08,-40.613 l -29.76,0.094 0.17,-224.637 c 0.02,-22.277 1.48,-51.395 34.07,-54.586 17.4,-1.687 36.87,7.57 57.2,7.078 17.3,-0.422 31.01,-13.039 33.85,-34.855 3.6,-27.586 -21.81,-47.731 -64.16,-55.653 -17.87,-3.351 -38.54,-3.316 -60.83,-2.711 -85.35,2.247 -109.19,46.012 -109.19,139.602" /><path
         id="path22"
         style="fill:#231f20;fill-opacity:1;fill-rule:nonzero;stroke:none"
         d="m 2788.8,100.418 h 9.75 V 12.7734 h 37.25 V 3.42188 h -47 z m 189.62,4.277 c 2.09,0 3.88,-0.734 5.39,-2.242 1.5,-1.488 2.24,-3.3085 2.24,-5.4061 0,-2.0781 -0.74,-3.8477 -2.24,-5.3281 -1.51,-1.5118 -3.3,-2.254 -5.39,-2.254 -2.06,0 -3.85,0.7422 -5.36,2.254 -1.48,1.4804 -2.22,3.25 -2.22,5.3281 0,2.0976 0.74,3.9181 2.22,5.4061 1.51,1.508 3.3,2.242 5.36,2.242 z m -4.62,-29.5309 h 9.31 V 3.42188 h -9.31 z m 153.93,0 h 9.24 V 62.3008 c 3.69,4.914 7.78,8.625 12.27,11.0469 4.47,2.4453 9.36,3.6601 14.65,3.6601 5.36,0 10.1,-1.3672 14.29,-4.0976 4.12,-2.711 7.2,-6.3868 9.16,-10.9961 1.98,-4.6055 2.97,-11.8203 2.97,-21.5547 V 3.42188 h -9.16 V 37.6602 c 0,8.2617 -0.36,13.7695 -1.06,16.5273 -1.1,4.7617 -3.14,8.3242 -6.18,10.7227 -3.05,2.3711 -7,3.6054 -11.88,3.6054 -5.6,0 -10.58,-1.8476 -15.01,-5.539 -4.4,-3.7149 -7.32,-8.2852 -8.73,-13.7266 -0.86,-3.5586 -1.32,-10.0664 -1.32,-19.5234 V 3.42188 h -9.24 z m 206.69,0 h 9.3 V 41.6602 c 0,-8.168 0.46,-13.8008 1.32,-16.875 1.34,-4.3907 3.85,-7.8516 7.55,-10.4219 3.71,-2.5508 8.15,-3.832 13.3,-3.832 5.14,0 9.5,1.2539 13.09,3.7382 3.57,2.4727 6.04,5.7383 7.41,9.7969 0.93,2.7656 1.37,8.6367 1.37,17.5938 v 33.5039 h 9.44 V 39.9336 c 0,-9.8672 -1.15,-17.3164 -3.44,-22.332 -2.32,-5.0196 -5.8,-8.92972 -10.42,-11.77347 -4.64,-2.83985 -10.47,-4.25391 -17.45,-4.25391 -7,0 -12.82,1.41406 -17.5,4.25391 -4.69,2.84375 -8.18,6.79297 -10.49,11.86717 -2.3,5.082 -3.48,12.7188 -3.48,22.9141 z m 200.64,0 h 11.08 l 18.99,-26.5821 18.97,26.5821 h 11.09 l -24.52,-34.1094 27.6,-37.63282 h -11.2 L 3565.13,33.5625 3543.51,3.42188 h -11.05 l 27.2,37.63282 -24.6,34.1094" /></g></g></svg>